<svg width="347" height="1086" viewBox="0 0 347 1086" fill="none" xmlns="http://www.w3.org/2000/svg">
<path d="M80.8054 27.1273C54.1175 44.3308 43.1283 78.7379 44.3618 110.523C45.9316 146.503 61.9669 182.589 90.449 204.513C118.931 226.437 160.197 232.206 192.043 215.422C221.87 199.687 240.148 166.644 243.961 133.076C247.886 99.5081 239.027 65.6254 225.234 34.68C221.31 25.9733 216.824 17.0568 209.423 11.0775C204.041 6.67175 196.752 4.25901 190.024 5.20311C186.1 5.72761 183.633 9.92364 185.09 13.7L219.179 102.445C232.972 138.426 247.101 175.56 246.652 214.164C246.428 234.724 244.967 253.802 220.298 269.012C207.178 278.663 106.708 280.25 90.449 281.09M132.724 1045.39C143.152 1023.57 153.693 1001.33 157.169 977.729C161.542 948.357 153.581 915.733 125.323 898.53C110.409 889.508 91.5704 887.41 75.5352 894.543C45.9317 907.551 41.6706 942.692 44.8104 971.959C47.2773 994.513 52.4355 1017.28 64.4339 1037.1C76.4322 1056.93 95.9436 1073.4 119.604 1078.64C152.908 1085.99 188.23 1069.62 210.657 1045.28C253.044 999.548 254.614 925.174 214.133 877.864C174.886 831.813 100.093 816.393 43.5769 841.884C42.1191 842.513 42.4555 844.611 44.0254 844.821C88.2063 850.171 133.172 849.017 176.905 841.359C194.173 838.317 212.339 833.702 223.889 821.323C239.251 804.854 238.018 780.412 235.999 758.593C231.178 707.612 226.244 656.526 221.422 605.545C220.637 597.572 216.039 590.229 208.639 586.243C189.351 575.963 173.54 596.733 168.831 614.356C154.926 666.177 170.737 724.186 209.536 763.419C209.76 763.628 209.536 763.943 209.199 763.838L29.6722 666.072C27.9902 665.128 27.8781 663.03 29.4479 661.981C89.5519 621.28 144.946 574.599 194.397 522.779C211.554 504.736 228.711 484.91 229.159 459.734C229.383 448.719 225.459 437.915 217.497 429.837C196.752 409.277 166.7 420.501 151.786 439.278C140.237 453.964 135.639 472.322 130.817 489.945C127.229 503.057 123.304 516.38 114.894 527.394C106.484 538.409 92.5795 546.591 78.2264 545.227C62.9761 543.759 50.8656 531.905 45.2589 518.478C39.7643 505.156 39.6522 490.469 39.6522 476.203L39.3157 287.803C39.3157 286.02 37.2973 284.866 35.6153 285.6C14.8705 295.356 2.42357 318.539 5.4512 339.938C6.34827 346.232 11.3943 351.268 17.8981 352.841C90.7854 370.464 167.261 375.29 242.055 367.002" stroke="#CCAF40" stroke-width="10" stroke-miterlimit="10" stroke-linecap="round"/>
<path d="M338.599 793.406L334.114 791.203C338.039 787.532 340.842 780.818 340.842 774C340.842 764.244 336.469 760.048 330.974 760.048C315.724 760.048 325.031 792.147 304.51 792.147C296.325 792.147 289.26 786.168 289.26 772.951C289.26 767.076 291.054 760.992 294.194 756.796L298.904 758.684C295.764 763.195 294.306 768.335 294.306 772.951C294.306 782.497 298.792 786.693 304.398 786.693C319.649 786.693 310.454 754.593 330.75 754.593C338.936 754.593 346 760.677 346 774C345.888 781.867 342.972 789.525 338.599 793.406Z" fill="white" stroke="white" stroke-width="1.9463" stroke-miterlimit="10"/>
<path d="M294.755 688.506L294.755 706.864L289.709 706.864L289.709 664.694L294.755 664.694L294.755 683.052L345.327 683.052L345.327 688.611L294.755 688.506Z" fill="white" stroke="white" stroke-width="1.9463" stroke-miterlimit="10"/>
<path d="M321.555 612.769L289.596 612.769L289.596 607.209L321.33 607.209C334.562 607.209 340.618 601.44 340.618 591.264C340.618 581.089 334.562 575.215 321.33 575.215L289.596 575.215L289.596 569.865L321.555 569.865C337.59 569.865 345.888 577.942 345.888 591.264C345.888 604.691 337.59 612.769 321.555 612.769Z" fill="white" stroke="white" stroke-width="1.9463" stroke-miterlimit="10"/>
<path d="M289.709 508.708L289.709 487.518C289.709 470.839 301.147 459.615 317.518 459.615C333.89 459.615 345.327 470.839 345.327 487.518L345.327 508.708L289.709 508.708ZM340.281 487.728C340.281 473.881 330.862 464.965 317.518 464.965C304.174 464.965 294.755 473.881 294.755 487.728L294.755 503.148L340.281 503.148L340.281 487.728Z" fill="white" stroke="white" stroke-width="1.9463" stroke-miterlimit="10"/>
<path d="M289.709 402.55L289.709 396.99L345.44 396.99L345.44 402.55L289.709 402.55Z" fill="white" stroke="white" stroke-width="1.9463" stroke-miterlimit="10"/>
<path d="M317.518 340.029C301.259 340.029 289.148 328.385 289.148 312.65C289.148 297.02 301.146 285.377 317.518 285.377C333.777 285.377 345.888 297.02 345.888 312.65C345.888 328.385 333.777 340.029 317.518 340.029ZM317.518 290.831C304.286 290.831 294.418 300.167 294.418 312.65C294.418 325.238 304.174 334.575 317.518 334.575C330.75 334.575 340.618 325.238 340.618 312.65C340.618 300.063 330.862 290.831 317.518 290.831Z" fill="white" stroke="white" stroke-width="1.9463" stroke-miterlimit="10"/>
<path d="M338.599 233.241L334.114 231.038C338.039 227.367 340.842 220.653 340.842 213.835C340.842 204.079 336.469 199.883 330.974 199.883C315.724 199.883 325.031 231.983 304.51 231.983C296.325 231.983 289.26 226.003 289.26 212.786C289.26 206.911 291.054 200.827 294.194 196.631L298.904 198.519C295.764 203.03 294.306 208.17 294.306 212.786C294.306 222.332 298.792 226.528 304.398 226.528C319.649 226.528 310.454 194.428 330.75 194.428C338.936 194.428 346 200.513 346 213.835C345.888 221.702 342.972 229.36 338.599 233.241Z" fill="white" stroke="white" stroke-width="1.9463" stroke-miterlimit="10"/>
</svg>
