<svg width="156" height="35" viewBox="0 0 156 35" fill="none" xmlns="http://www.w3.org/2000/svg">
<path d="M150.986 11.0455C148.553 7.5089 143.686 6.05265 139.19 6.21611C134.1 6.42414 128.996 8.54908 125.895 12.3234C122.794 16.0978 121.978 21.5662 124.352 25.7863C126.578 29.739 131.251 32.1611 136 32.6664C140.748 33.1865 145.54 32.0125 149.918 30.1848C151.149 29.6647 152.41 29.0703 153.256 28.0896C153.879 27.3763 154.221 26.4104 154.087 25.5189C154.013 24.9988 153.419 24.6719 152.885 24.865L140.332 29.3824C135.243 31.2101 129.99 33.0824 124.53 33.023C121.622 32.9933 118.923 32.7998 116.772 29.5306C115.407 27.792 115.182 14.4781 115.063 12.3234M6.95389 17.9256C10.0402 19.3075 13.1858 20.7043 16.5244 21.165C20.679 21.7445 25.2936 20.6895 27.727 16.9448C29.0031 14.9685 29.2999 12.472 28.2909 10.3471C26.451 6.42415 21.4803 5.85948 17.3405 6.27555C14.1503 6.60246 10.9305 7.28601 8.12609 8.876C5.32172 10.466 2.99216 13.0516 2.25026 16.187C1.2116 20.6003 3.52632 25.2811 6.96873 28.253C13.4381 33.87 23.9582 34.078 30.6501 28.7137C37.164 23.5128 39.3452 13.6014 35.7395 6.11209C35.6505 5.91892 35.3537 5.9635 35.3241 6.17153C34.5673 12.0263 34.7306 17.985 35.8137 23.7803C36.244 26.0687 36.8969 28.4759 38.6478 30.0065C40.9773 32.0423 44.4346 31.8788 47.5209 31.6113C54.7321 30.9724 61.9582 30.3185 69.1695 29.6796C70.2971 29.5756 71.3358 28.9663 71.8997 27.9856C73.3538 25.4297 70.4159 23.3345 67.9231 22.7104C60.5931 20.8678 52.3877 22.963 46.8383 28.1044C46.8087 28.1342 46.7641 28.1044 46.779 28.0599L60.608 4.26949C60.7415 4.0466 61.0383 4.03173 61.1866 4.23977C66.9438 12.2046 73.5467 19.5453 80.8766 26.0984C83.4287 28.3719 86.2331 30.6455 89.7942 30.7049C91.3522 30.7346 92.8805 30.2145 94.023 29.1595C96.9313 26.4104 95.3436 22.428 92.6876 20.4517C90.6103 18.9211 88.0137 18.3119 85.5209 17.6729C83.6662 17.1974 81.7817 16.6773 80.2237 15.5629C78.6658 14.4484 77.5084 12.6058 77.7013 10.7037C77.909 8.68282 79.5857 7.07797 81.485 6.33499C83.3694 5.60686 85.4467 5.592 87.4647 5.592L114.114 5.54742C114.366 5.54742 114.529 5.27995 114.425 5.05705C113.045 2.30801 109.766 0.658584 106.739 1.0598C105.849 1.17867 105.137 1.84736 104.914 2.70922C102.421 12.368 101.739 22.5023 102.911 32.4138" stroke="#CCAF40" stroke-width="2" stroke-miterlimit="10" stroke-linecap="round"/>
</svg>
