<svg width="59" height="602" viewBox="0 0 59 602" fill="none" xmlns="http://www.w3.org/2000/svg">
<path d="M50.5992 600.406L46.1138 598.203C50.0385 594.532 52.8419 587.818 52.8419 581C52.8419 571.244 48.4687 567.048 42.9741 567.048C27.7238 567.048 37.0309 599.147 16.5104 599.147C8.32456 599.147 1.26013 593.168 1.26013 579.951C1.26013 574.076 3.05431 567.992 6.19407 563.796L10.9036 565.684C7.76389 570.195 6.30617 575.335 6.30617 579.951C6.30617 589.497 10.7915 593.693 16.3983 593.693C31.6485 593.693 22.4535 561.593 42.7498 561.593C50.9356 561.593 58 567.677 58 581C57.8879 588.867 54.9724 596.525 50.5992 600.406Z" fill="white" stroke="white" stroke-width="1.9463" stroke-miterlimit="10"/>
<path d="M6.7549 495.506L6.7549 513.864L1.70886 513.864L1.70886 471.694L6.7549 471.694L6.7549 490.052L57.3274 490.052L57.3274 495.611L6.7549 495.506Z" fill="white" stroke="white" stroke-width="1.9463" stroke-miterlimit="10"/>
<path d="M33.5547 419.769L1.59644 419.769L1.59644 414.209L33.3304 414.209C46.5623 414.209 52.6175 408.44 52.6175 398.264C52.6175 388.089 46.5623 382.215 33.3304 382.215L1.59643 382.215L1.59643 376.865L33.5547 376.865C49.5899 376.865 57.8879 384.942 57.8879 398.264C57.8879 411.691 49.5899 419.769 33.5547 419.769Z" fill="white" stroke="white" stroke-width="1.9463" stroke-miterlimit="10"/>
<path d="M1.70886 315.708L1.70886 294.518C1.70886 277.839 13.1465 266.615 29.5181 266.615C45.8898 266.615 57.3274 277.839 57.3274 294.518L57.3274 315.708L1.70886 315.708ZM52.2814 294.728C52.2814 280.881 42.8621 271.965 29.5181 271.965C16.1742 271.965 6.7549 280.881 6.7549 294.728L6.7549 310.148L52.2814 310.148L52.2814 294.728Z" fill="white" stroke="white" stroke-width="1.9463" stroke-miterlimit="10"/>
<path d="M1.70886 209.55L1.70886 203.99L57.4395 203.99L57.4395 209.55L1.70886 209.55Z" fill="white" stroke="white" stroke-width="1.9463" stroke-miterlimit="10"/>
<path d="M29.518 147.029C13.2586 147.029 1.14807 135.385 1.14807 119.65C1.14807 104.02 13.1464 92.3765 29.518 92.3765C45.7775 92.3765 57.888 104.02 57.888 119.65C57.888 135.385 45.7775 147.029 29.518 147.029ZM29.518 97.8313C16.2862 97.8313 6.41833 107.167 6.41833 119.65C6.41833 132.238 16.174 141.575 29.518 141.575C42.7499 141.575 52.6177 132.238 52.6177 119.65C52.6177 107.063 42.862 97.8313 29.518 97.8313Z" fill="white" stroke="white" stroke-width="1.9463" stroke-miterlimit="10"/>
<path d="M50.5992 40.2413L46.1138 38.0384C50.0385 34.3669 52.8419 27.6534 52.8419 20.8349C52.8419 11.0792 48.4687 6.88315 42.9741 6.88315C27.7238 6.88316 37.0309 38.9825 16.5104 38.9825C8.32456 38.9825 1.26013 33.0032 1.26013 19.7859C1.26013 13.9115 3.05431 7.82728 6.19407 3.63129L10.9036 5.51947C7.76389 10.0302 6.30617 15.1703 6.30617 19.7859C6.30617 29.3318 10.7915 33.5277 16.3983 33.5277C31.6485 33.5277 22.4535 1.42842 42.7498 1.42842C50.9356 1.42842 58 7.5126 58 20.8349C57.8879 28.7024 54.9724 36.36 50.5992 40.2413Z" fill="white" stroke="white" stroke-width="1.9463" stroke-miterlimit="10"/>
</svg>
